<svg xmlns="http://www.w3.org/2000/svg" width="13.969" height="12.203" viewBox="0 0 13.969 12.203">
  <g id="arrow-icon" transform="translate(-0.7 0.336)">
    <g id="Group_1446" data-name="Group 1446" transform="translate(0 0)">
      <path id="Path_22517" data-name="Path 22517" d="M32.255,90.861,26.4,85.439a.413.413,0,0,0-.552,0,.343.343,0,0,0,0,.511l5.192,4.8H19.391a.363.363,0,1,0,0,.723H31.036l-5.192,4.8a.343.343,0,0,0,0,.511.413.413,0,0,0,.552,0l5.859-5.422A.343.343,0,0,0,32.255,90.861Z" transform="translate(-18 -85.333)" fill="#000" stroke="#000" stroke-width="0.6"/>
    </g>
  </g>
</svg>
